<?xml version="1.0" standalone="no"?>
<!DOCTYPE svg PUBLIC "-//W3C//DTD SVG 20010904//EN"
 "http://www.w3.org/TR/2001/REC-SVG-20010904/DTD/svg10.dtd">
<svg version="1.0" xmlns="http://www.w3.org/2000/svg"
 width="71.000000pt" height="80.000000pt" viewBox="0 0 71.000000 80.000000"
 preserveAspectRatio="xMidYMid meet">
<metadata>
Created by potrace 1.16, written by Peter Selinger 2001-2019
</metadata>
<g transform="translate(0.000000,80.000000) scale(0.100000,-0.100000)"
fill="#000000" stroke="none">
<path d="M270 790 c0 -5 6 -10 13 -10 6 -1 0 -7 -14 -15 -47 -25 -47 -69 -1
-86 24 -9 24 -10 6 -24 -13 -10 -46 -14 -102 -15 l-83 0 6 -47 c10 -75 26
-144 46 -189 l17 -42 -36 4 c-26 4 -48 -2 -76 -18 -43 -25 -50 -36 -37 -56 7
-12 14 -11 39 2 38 19 52 5 17 -18 -33 -22 -31 -49 6 -80 23 -20 37 -24 57
-19 31 7 42 20 35 40 -3 7 0 13 5 13 19 0 23 -19 10 -42 -7 -13 -11 -27 -10
-31 1 -4 -7 -3 -19 3 -11 7 -23 9 -26 7 -3 -3 9 -13 26 -21 28 -15 29 -19 19
-41 -25 -56 67 -100 207 -100 117 0 170 23 171 73 0 29 6 37 50 61 27 16 56
41 64 56 13 24 12 30 -2 55 l-16 29 31 3 c49 5 46 32 -5 51 -24 10 -54 17 -67
17 -18 0 -22 4 -15 18 25 58 53 156 58 210 l7 62 -83 0 c-57 1 -89 5 -102 15
-20 15 -20 15 1 15 26 0 56 33 51 57 -2 10 -19 26 -38 35 -19 10 -29 18 -22
18 6 0 12 5 12 10 0 6 -16 10 -35 10 -38 0 -40 -2 -24 -31 9 -17 7 -20 -8 -17
-10 2 -17 -2 -16 -9 2 -7 -3 -10 -11 -7 -18 7 -28 -9 -20 -30 5 -13 13 -10 46
19 30 27 44 34 61 29 47 -14 47 -54 1 -69 -16 -5 -42 -18 -57 -27 -38 -25 -53
-22 -71 14 -19 36 -21 69 -5 66 6 -2 14 3 16 10 3 8 -1 10 -11 6 -17 -7 -22
11 -6 21 21 13 9 25 -25 25 -19 0 -35 -4 -35 -10z m20 -70 c0 -31 -16 -41 -26
-15 -8 19 2 45 16 45 5 0 10 -13 10 -30z m67 -226 c103 -76 190 -138 192 -140
4 -4 -19 -64 -25 -64 -2 0 -48 33 -102 73 -54 39 -147 107 -205 149 -75 55
-107 84 -107 98 0 16 7 20 30 20 22 0 76 -34 217 -136z m163 66 c0 -17 5 -30
13 -31 10 0 10 -2 0 -6 -7 -2 -13 -18 -13 -34 0 -26 3 -28 30 -25 17 2 30 -1
30 -5 0 -10 -2 -11 -52 -13 -20 0 -47 2 -60 6 -22 6 -21 6 5 7 23 1 27 5 27
31 0 17 -5 30 -12 31 -10 0 -10 2 0 6 6 2 12 18 12 34 0 16 5 29 10 29 6 0 10
-13 10 -30z m-233 -136 c-3 -3 -12 -4 -19 -1 -8 3 -5 6 6 6 11 1 17 -2 13 -5z
m27 -30 c9 -23 8 -24 -19 -24 -23 0 -24 2 -15 20 13 24 26 26 34 4z m-170 -47
c25 -19 13 -57 -18 -57 -25 0 -53 40 -42 59 10 15 38 14 60 -2z m181 -22 c0
-21 -5 -25 -27 -25 -23 0 -28 4 -28 25 0 21 5 25 28 25 22 0 27 -4 27 -25z
m-255 0 c0 -8 -3 -15 -7 -15 -5 0 -19 -3 -33 -6 l-25 -6 24 21 c28 25 41 27
41 6z m560 8 c-1 -20 -21 -36 -49 -39 -35 -4 -38 2 -14 28 16 17 63 26 63 11z
m-233 -17 c-3 -8 0 -22 8 -32 11 -16 15 -16 29 -5 9 8 20 11 24 7 15 -16 -34
-36 -89 -36 -41 0 -60 5 -70 17 -8 9 -9 14 -4 11 20 -12 105 -18 105 -8 0 10
-12 13 -40 11 -10 -1 -15 7 -15 24 0 21 5 25 29 25 20 0 27 -4 23 -14z m297
-7 c15 -14 1 -21 -28 -13 -14 3 -26 13 -26 21 0 15 35 10 54 -8z m-408 -116
c35 -35 71 -63 81 -63 10 0 29 9 42 19 25 19 25 19 44 -6 26 -33 13 -43 -59
-50 -80 -7 -110 6 -118 51 -7 37 -39 67 -104 101 -31 15 -33 18 -18 34 9 10
16 24 16 32 1 8 13 -2 27 -21 15 -19 55 -63 89 -97z m289 62 c0 -20 -37 -43
-94 -60 -22 -7 -21 -3 15 39 42 49 79 59 79 21z m-452 1 c17 -13 16 -14 -3
-19 -11 -3 -20 -13 -20 -23 0 -16 1 -16 15 2 8 10 15 14 15 8 0 -6 -6 -17 -14
-23 -16 -13 -51 2 -60 26 -15 38 30 57 67 29z m522 -10 c13 -20 14 -29 5 -47
-9 -16 -14 -18 -20 -9 -6 9 -10 8 -17 -4 -8 -15 -11 -14 -21 8 -8 18 -8 31 1
50 15 32 32 33 52 2z m-495 -46 c0 -5 -5 -10 -11 -10 -5 0 -7 5 -4 10 3 6 8
10 11 10 2 0 4 -4 4 -10z m110 -47 c0 -7 -11 -13 -25 -13 -14 0 -25 5 -25 10
0 6 -7 10 -15 10 -13 0 -13 3 1 25 l17 26 23 -22 c13 -13 24 -28 24 -36z m331
15 c9 -16 7 -17 -14 -7 -18 8 -23 17 -19 31 5 20 8 18 33 -24z m-51 22 c0 -5
-2 -10 -4 -10 -3 0 -8 5 -11 10 -3 6 -1 10 4 10 6 0 11 -4 11 -10z m-12 -40
c-4 -21 -30 -23 -53 -5 -19 15 -19 15 -1 29 14 12 22 12 37 3 11 -7 18 -19 17
-27z m42 -4 c0 -3 -4 -8 -10 -11 -5 -3 -10 -1 -10 4 0 6 5 11 10 11 6 0 10 -2
10 -4z m-330 -26 c0 -6 -7 -13 -15 -16 -8 -4 -15 -17 -15 -31 0 -22 -2 -24
-15 -13 -18 15 -19 42 -3 58 15 15 48 16 48 2z m290 -25 c13 -15 7 -45 -9 -45
-5 0 -11 13 -13 30 -5 33 3 38 22 15z m-256 -20 c6 -18 -16 -30 -39 -21 -8 3
-15 12 -15 21 0 20 46 20 54 0z m28 -20 c-4 -37 -8 -40 -30 -26 -11 7 -11 9 2
14 9 4 16 16 16 27 0 11 4 20 8 20 4 0 6 -16 4 -35z m145 21 c-3 -7 1 -24 10
-36 15 -21 14 -21 -13 -18 -35 4 -44 33 -17 53 23 18 26 18 20 1z m-63 -12 c9
-8 16 -25 16 -36 0 -18 -4 -20 -41 -15 -49 6 -53 10 -44 36 8 25 25 18 25 -10
0 -10 4 -19 8 -19 5 0 7 13 4 30 -5 33 8 39 32 14z m106 1 c0 -8 -7 -15 -15
-15 -16 0 -20 12 -8 23 11 12 23 8 23 -8z"/>
<path d="M235 70 c3 -5 14 -10 23 -10 15 0 15 2 2 10 -20 13 -33 13 -25 0z"/>
<path d="M435 720 c-4 -6 3 -10 14 -10 25 0 27 6 6 13 -8 4 -17 2 -20 -3z"/>
<path d="M335 701 c-3 -5 -1 -12 5 -16 5 -3 10 1 10 9 0 18 -6 21 -15 7z"/>
<path d="M397 694 c-11 -11 3 -24 18 -18 8 4 12 10 9 15 -6 11 -18 12 -27 3z"/>
</g>
</svg>
