<?xml version="1.0" standalone="no"?>
<!DOCTYPE svg PUBLIC "-//W3C//DTD SVG 20010904//EN"
 "http://www.w3.org/TR/2001/REC-SVG-20010904/DTD/svg10.dtd">
<svg version="1.0" xmlns="http://www.w3.org/2000/svg"
 width="200.000000pt" height="200.000000pt" viewBox="0 0 200.000000 200.000000"
 preserveAspectRatio="xMidYMid meet">
<metadata>
Created by potrace 1.16, written by Peter Selinger 2001-2019
</metadata>
<g transform="translate(0.000000,200.000000) scale(0.100000,-0.100000)"
fill="#000000" stroke="none">
<path d="M310 1606 l0 -395 95 -3 c77 -2 95 0 95 11 0 31 14 -2 16 -38 1 -21
7 -47 13 -59 8 -15 7 -23 -4 -32 -12 -10 -15 -9 -15 4 0 14 -14 16 -100 16
-87 0 -100 -2 -100 -17 0 -9 12 -29 26 -44 25 -26 27 -33 25 -118 -2 -76 0
-91 13 -91 10 0 13 6 10 15 -5 11 -2 13 10 9 24 -9 20 -20 -13 -33 -25 -11
-28 -17 -26 -52 1 -22 -2 -42 -6 -45 -5 -3 -9 -13 -8 -22 0 -11 4 -9 10 8 l10
25 21 -25 c11 -14 24 -24 28 -23 4 1 7 -20 7 -48 -1 -35 -4 -48 -13 -45 -15 6
-30 -52 -18 -64 5 -5 22 -6 37 -3 18 4 24 8 17 13 -8 5 -8 10 -2 14 5 3 17 -9
26 -27 8 -17 16 -28 16 -23 0 5 11 -1 25 -14 23 -22 24 -25 9 -47 -20 -31 -16
-108 6 -108 9 0 17 13 20 35 4 19 13 45 20 57 13 20 16 20 42 7 19 -10 26 -19
22 -32 -5 -14 -4 -14 5 -2 8 12 14 11 35 -10 15 -13 26 -28 25 -34 0 -6 -3 -5
-6 2 -10 26 -18 9 -21 -46 -2 -55 0 -61 33 -95 20 -20 39 -36 43 -36 21 3 32
-2 26 -13 -4 -6 -3 -8 4 -4 6 3 22 2 36 -4 22 -8 25 -14 20 -38 -7 -36 6 -46
38 -29 15 7 22 19 20 30 -3 16 -1 17 19 7 13 -7 70 -13 140 -14 66 0 119 -5
119 -10 0 -4 11 -5 24 -2 16 4 26 1 30 -9 3 -10 19 -15 46 -15 l40 0 0 41 c0
23 -4 38 -10 34 -5 -3 -6 -13 -3 -23 5 -16 5 -16 -13 0 -18 17 -18 18 1 33 26
19 40 19 55 0 7 -8 20 -15 30 -15 15 0 18 9 18 58 0 51 -2 54 -11 30 -6 -16
-15 -28 -20 -28 -5 0 -6 8 -2 18 16 36 17 73 2 95 -14 22 -13 24 24 44 22 12
39 17 39 12 0 -5 5 -9 10 -9 6 0 10 6 10 13 0 7 13 23 30 35 28 21 30 21 50 5
16 -14 20 -30 20 -86 0 -60 2 -68 18 -65 14 3 18 16 20 77 2 42 -2 79 -8 85
-5 5 -10 19 -10 29 0 16 -3 17 -15 7 -21 -18 -19 -5 8 35 21 33 47 47 47 25 0
-6 75 -10 205 -10 l205 0 0 245 0 245 -260 0 c-224 0 -260 2 -260 15 0 8 4 15
9 15 5 0 9 11 9 25 0 34 6 39 30 26 13 -7 104 -11 246 -11 l226 0 0 115 0 115
-210 0 c-115 0 -213 1 -217 3 -4 1 -10 -11 -13 -28 -4 -20 -8 -26 -13 -17 -7
10 -2 68 9 115 1 4 2 14 3 22 1 12 36 15 224 18 l222 2 -222 3 c-141 1 -223 6
-223 12 0 6 80 10 220 10 l220 0 0 53 c0 50 -3 56 -46 97 -25 25 -52 59 -61
75 -8 17 -79 94 -156 173 l-142 142 -642 0 -643 0 0 -394z m535 -337 c99 -89
200 -180 225 -203 25 -23 98 -88 162 -146 l118 -104 -27 -45 c-14 -25 -27 -48
-29 -50 -3 -3 -309 267 -604 534 -85 77 -156 148 -158 157 -3 16 5 18 65 18
l68 0 180 -161z m475 157 c0 -3 -4 -8 -10 -11 -5 -3 -10 -1 -10 4 0 6 5 11 10
11 6 0 10 -2 10 -4z m-60 -36 c0 -11 4 -20 9 -20 5 0 8 -29 7 -65 -2 -55 0
-65 14 -65 17 0 40 -18 40 -32 0 -5 -8 -5 -17 0 -33 17 -43 3 -43 -59 0 -56 1
-59 25 -59 20 0 25 5 25 24 0 13 7 29 15 36 16 13 54 5 57 -13 0 -7 2 -16 2
-22 1 -5 5 -15 9 -21 3 -6 -3 -20 -14 -30 -18 -16 -36 -19 -122 -17 -86 1
-103 4 -121 22 l-20 21 52 0 53 0 -3 63 c-3 62 -3 62 -32 60 -28 -2 -29 -1
-13 15 10 9 25 17 34 17 14 0 17 9 16 47 -1 26 -4 52 -8 58 -3 5 -1 10 4 10 6
0 11 11 11 25 0 14 5 25 10 25 6 0 10 -9 10 -20z m-67 3 c-7 -2 -21 -2 -30 0
-10 3 -4 5 12 5 17 0 24 -2 18 -5z m140 0 c-7 -2 -19 -2 -25 0 -7 3 -2 5 12 5
14 0 19 -2 13 -5z m-8 -33 c3 -6 -1 -7 -9 -4 -18 7 -21 14 -7 14 6 0 13 -4 16
-10z m-515 -289 c0 -5 2 -16 5 -24 5 -11 -2 -13 -37 -7 -65 9 -81 23 -38 31
54 10 70 10 70 0z m61 -104 l4 -43 -53 1 -52 0 5 34 c7 47 11 51 55 51 38 0
38 0 41 -43z m-413 27 c16 -5 22 -14 22 -35 0 -15 5 -31 10 -34 15 -9 12 -18
-16 -39 -25 -18 -26 -18 -40 3 -8 12 -24 21 -35 21 -16 0 -19 7 -19 45 0 42 2
45 28 45 15 0 37 -3 50 -6z m1186 -4 c-6 -6 -19 -12 -30 -14 -10 -2 -36 -12
-57 -22 -43 -21 -70 -12 -75 25 -3 20 0 21 84 21 60 0 85 -3 78 -10z m-1066
-25 c6 -14 8 -25 3 -25 -13 0 -42 36 -34 43 12 12 20 8 31 -18z m912 -55 c-12
-8 -10 -10 9 -10 41 0 12 -15 -30 -16 -30 0 -38 3 -34 14 3 7 5 16 5 18 0 3 4
2 10 -1 5 -3 18 -2 27 4 22 12 33 4 13 -9z m-888 -22 c8 -7 22 -31 31 -54 23
-60 7 -88 -53 -92 -40 -2 -46 0 -57 23 -6 15 -10 32 -7 39 3 7 -2 19 -11 26
-20 17 -19 26 5 50 23 23 68 26 92 8z m290 -42 c-2 -22 3 -47 12 -62 9 -13 12
-24 7 -24 -5 0 -13 5 -16 10 -8 13 -51 13 -75 0 -25 -13 -41 9 -47 64 -5 44
-5 45 28 49 19 2 47 3 64 2 28 -1 30 -3 27 -39z m108 15 c0 -21 6 -30 22 -34
12 -4 25 -1 29 4 5 8 8 8 13 0 4 -5 -3 -20 -14 -31 -14 -14 -19 -28 -15 -40 5
-17 3 -19 -23 -14 -17 4 -40 0 -53 -7 -23 -13 -23 -14 21 -20 l45 -6 -57 -1
c-99 -3 -66 -22 37 -22 57 0 95 4 95 10 0 6 -13 10 -30 10 -16 0 -30 4 -30 8
0 5 13 7 29 4 17 -2 39 2 51 11 20 14 60 13 60 -2 0 -18 -44 -51 -79 -61 -50
-13 -167 -10 -206 5 -16 7 -39 22 -49 34 l-19 21 47 -6 c39 -6 49 -4 61 12 19
26 19 64 -2 94 -13 18 -13 22 -2 18 59 -22 62 -22 57 11 -2 17 -1 31 4 31 4 0
8 -13 8 -29z m623 -10 c3 -14 0 -17 -14 -14 -15 4 -17 8 -8 19 15 18 16 18 22
-5z m-126 -7 c3 -8 -4 -25 -16 -38 -28 -30 -27 -42 7 -55 22 -9 22 -10 2 -4
-14 4 -49 6 -77 6 -29 -1 -53 1 -53 3 0 16 34 65 56 83 31 25 72 27 81 5z
m-1040 -57 c-54 -47 -66 -51 -73 -23 -8 32 -1 42 44 65 34 17 37 17 49 2 11
-14 8 -20 -20 -44z m1123 37 c40 -16 49 -34 31 -63 -8 -13 -17 -13 -65 -1 -59
14 -65 20 -41 40 8 7 15 19 15 26 0 18 11 18 60 -2z m-1093 -64 c2 -21 -29
-44 -42 -32 -5 4 -5 2 -1 -5 3 -6 2 -14 -4 -18 -5 -3 -10 -2 -10 4 0 6 -8 8
-17 4 -10 -3 2 10 27 30 25 20 45 36 45 36 1 1 1 -8 2 -19z m187 -34 c-3 -9
-13 -16 -20 -16 -8 0 -19 -10 -24 -22 l-9 -23 0 23 c-1 31 41 84 52 66 4 -7 4
-19 1 -28z m970 8 c3 -8 2 -12 -4 -9 -6 3 -10 -3 -10 -14 0 -23 -10 -27 -26
-11 -14 14 -46 2 -38 -14 3 -6 -4 0 -15 14 -28 34 -26 40 10 30 32 -9 59 -4
59 11 0 15 17 10 24 -7z m-149 -20 c58 -27 73 -101 35 -171 -12 -21 -19 -30
-16 -20 7 23 -10 57 -29 57 -17 0 -20 -16 -5 -25 15 -9 12 -35 -3 -35 -8 0
-30 17 -50 39 l-36 39 25 23 c24 23 48 85 38 101 -8 12 4 10 41 -8z m-945 -8
c0 -8 12 -24 26 -35 15 -12 21 -21 15 -21 -7 0 -10 -3 -7 -8 2 -4 -13 -6 -34
-4 -31 3 -40 0 -50 -18 -9 -17 -8 -26 5 -46 20 -31 10 -52 -15 -29 -28 25 -53
91 -46 119 10 41 106 79 106 42z m150 4 c0 -5 -4 -10 -10 -10 -5 0 -10 5 -10
10 0 6 5 10 10 10 6 0 10 -4 10 -10z m63 -93 c21 -29 59 -73 84 -98 25 -26 40
-49 35 -53 -6 -3 -13 2 -17 13 -3 10 -31 43 -63 72 -31 30 -55 59 -54 64 2 5
0 7 -3 3 -8 -7 -85 28 -85 39 0 3 10 14 22 25 21 18 24 18 33 3 5 -9 27 -40
48 -68z m567 53 c0 -5 -4 -10 -10 -10 -5 0 -10 5 -10 10 0 6 5 10 10 10 6 0
10 -4 10 -10z m69 -35 c-13 -13 -17 -13 -31 5 -16 18 -16 20 0 29 12 7 21 6
32 -5 12 -12 12 -16 -1 -29z m-562 19 c-3 -3 -12 -4 -19 -1 -8 3 -5 6 6 6 11
1 17 -2 13 -5z m-173 -30 c40 -22 44 -28 36 -45 -6 -10 -7 -19 -3 -19 4 0 3
-4 -2 -8 -18 -13 -45 -61 -45 -80 0 -43 68 -52 90 -12 13 25 0 33 -21 14 -10
-9 -26 -14 -35 -10 -15 6 -15 8 0 29 9 12 19 30 23 40 3 9 10 17 15 17 6 0 8
9 5 20 -5 20 -5 20 21 1 58 -41 118 -123 106 -143 -3 -4 -24 -8 -47 -8 -23 0
-55 -7 -70 -15 -27 -14 -30 -13 -55 10 -15 14 -50 37 -78 52 -54 28 -63 52
-16 45 19 -2 33 3 47 18 18 20 19 23 3 50 -12 21 -13 30 -5 33 8 3 5 10 -8 21
-30 23 -13 19 39 -10z m666 1 c0 -7 8 -18 17 -23 13 -8 3 -14 -52 -31 -37 -12
-69 -20 -71 -19 -8 9 79 88 97 88 5 0 9 -7 9 -15z m-757 -13 c3 -4 -3 -17 -13
-30 -18 -22 -19 -22 -29 -4 -7 13 -7 22 1 30 14 14 35 16 41 4z m324 -8 c-3
-3 -12 -4 -19 -1 -8 3 -5 6 6 6 11 1 17 -2 13 -5z m90 0 c-3 -3 -12 -4 -19 -1
-8 3 -5 6 6 6 11 1 17 -2 13 -5z m-372 -54 c-7 -11 -45 -14 -45 -3 0 3 8 15
17 25 15 17 18 17 25 3 5 -8 6 -20 3 -25z m798 -16 c32 -35 46 -45 64 -41 l24
4 -23 -24 c-12 -13 -55 -41 -94 -62 l-72 -37 -56 28 c-73 37 -84 68 -37 110
17 15 41 28 54 28 12 1 38 9 57 19 19 11 37 19 38 20 2 1 22 -20 45 -45z
m-387 18 c-10 -2 -22 0 -28 6 -6 6 0 7 19 4 21 -5 23 -7 9 -10z m-39 -48 c-3
-3 -12 -4 -19 -1 -8 3 -5 6 6 6 11 1 17 -2 13 -5z m200 -91 c9 -13 13 -26 9
-30 -3 -3 -6 -1 -6 5 0 16 -33 15 -48 0 -9 -9 -8 -16 4 -30 16 -16 15 -18 -1
-24 -24 -10 -129 -10 -188 0 -40 6 -46 10 -36 22 15 19 49 18 49 -1 0 -8 5
-15 10 -15 6 0 10 5 10 10 0 6 11 10 25 10 18 0 23 -4 19 -15 -4 -8 -1 -15 5
-15 6 0 11 6 11 14 0 8 9 18 20 21 15 5 19 12 15 25 -7 21 41 76 49 57 2 -7 5
-5 5 4 1 8 7 21 14 28 10 10 13 7 15 -15 2 -15 11 -38 19 -51z m-142 47 c-3
-5 -16 -10 -28 -9 -20 1 -20 2 3 9 14 4 26 8 28 9 2 1 0 -3 -3 -9z m-80 -49
c3 -5 1 -12 -5 -16 -5 -3 -10 1 -10 9 0 18 6 21 15 7z m-148 -30 c12 -46 156
-88 268 -78 64 6 165 47 165 67 0 17 58 -18 76 -45 34 -53 -9 -114 -107 -152
-33 -12 -76 -17 -169 -17 -109 0 -135 4 -205 27 -143 48 -186 94 -148 159 28
48 110 75 120 39z m373 -251 c0 -5 -2 -10 -4 -10 -3 0 -8 5 -11 10 -3 6 -1 10
4 10 6 0 11 -4 11 -10z"/>
<path d="M1337 1143 c-13 -12 -7 -41 9 -47 25 -10 46 12 33 35 -10 19 -30 25
-42 12z"/>
<path d="M1385 650 c3 -5 8 -10 11 -10 2 0 4 5 4 10 0 6 -5 10 -11 10 -5 0 -7
-4 -4 -10z"/>
<path d="M1293 523 c-35 -21 -63 -40 -63 -44 0 -3 16 -6 36 -7 47 -2 51 -6 36
-44 -6 -18 -10 -33 -8 -35 5 -5 66 31 66 40 0 4 6 7 13 7 6 0 26 11 42 25 l30
24 -47 1 c-41 0 -48 3 -48 19 0 11 5 23 10 26 12 7 13 25 3 25 -5 0 -36 -17
-70 -37z m22 -13 c3 -5 -1 -10 -10 -10 -9 0 -13 5 -10 10 3 6 8 10 10 10 2 0
7 -4 10 -10z m50 -60 c-3 -5 -10 -10 -16 -10 -5 0 -9 5 -9 10 0 6 7 10 16 10
8 0 12 -4 9 -10z"/>
<path d="M1112 405 c0 -16 2 -22 5 -12 2 9 2 23 0 30 -3 6 -5 -1 -5 -18z"/>
<path d="M753 328 c-28 -30 -29 -48 -3 -81 45 -57 130 -39 130 27 0 40 -25 65
-71 72 -27 5 -39 1 -56 -18z m83 -31 c32 -28 25 -47 -16 -47 -30 0 -60 22 -60
44 0 33 39 35 76 3z"/>
<path d="M775 301 c-5 -9 37 -41 54 -41 25 0 17 18 -14 33 -19 9 -37 12 -40 8z"/>
<path d="M1235 320 c-3 -5 -14 -10 -24 -10 -10 0 -28 -11 -42 -26 -22 -24 -23
-27 -8 -52 12 -22 21 -27 50 -25 18 2 42 3 52 3 13 1 17 6 12 18 -3 9 -9 35
-12 59 -6 42 -15 53 -28 33z m0 -61 c0 -17 -6 -25 -22 -27 -19 -3 -23 1 -23
21 0 25 14 38 35 33 6 -2 10 -14 10 -27z"/>
<path d="M907 296 c-3 -7 -9 -34 -12 -60 -6 -39 -5 -46 9 -46 10 0 16 9 16 24
0 13 3 31 6 40 7 19 44 22 45 4 0 -7 1 -29 2 -48 1 -24 7 -35 17 -35 12 0 14
11 12 50 -2 28 -9 55 -15 61 -19 19 -74 25 -80 10z"/>
<path d="M1100 293 c-53 -8 -70 -14 -70 -23 0 -6 9 -10 20 -10 19 0 26 -14 32
-70 5 -41 23 -19 24 29 1 36 5 46 22 52 12 5 22 13 22 19 0 10 -5 10 -50 3z"/>
<path d="M1560 1359 c0 -18 9 -19 220 -19 214 0 220 1 220 20 0 20 -5 21 -220
20 -210 -1 -220 -2 -220 -21z"/>
<path d="M310 1181 c0 -5 45 -11 100 -13 75 -2 100 0 100 10 0 9 -27 12 -100
12 -55 0 -100 -4 -100 -9z"/>
<path d="M1565 510 c4 -6 88 -10 221 -10 136 0 214 4 214 10 0 6 -80 10 -221
10 -144 0 -218 -3 -214 -10z"/>
<path d="M565 420 c-3 -5 -1 -10 4 -10 6 0 11 5 11 10 0 6 -2 10 -4 10 -3 0
-8 -4 -11 -10z"/>
<path d="M588 353 c12 -2 30 -2 40 0 9 3 -1 5 -23 4 -22 0 -30 -2 -17 -4z"/>
<path d="M1443 353 c9 -2 25 -2 35 0 9 3 1 5 -18 5 -19 0 -27 -2 -17 -5z"/>
<path d="M1395 300 c-18 -8 -17 -9 8 -9 16 -1 26 3 22 9 -3 6 -7 10 -8 9 -1 0
-11 -4 -22 -9z"/>
<path d="M388 263 c45 -2 119 -2 165 0 45 1 8 3 -83 3 -91 0 -128 -2 -82 -3z"/>
<path d="M652 210 c0 -14 2 -19 5 -12 2 6 2 18 0 25 -3 6 -5 1 -5 -13z"/>
<path d="M790 125 c0 -19 5 -35 10 -35 6 0 10 16 10 35 0 19 -4 35 -10 35 -5
0 -10 -16 -10 -35z"/>
</g>
</svg>
